<svg width="469" height="281" viewBox="0 0 469 281" fill="none" xmlns="http://www.w3.org/2000/svg">
<path d="M321.496 149.609C321.494 154.432 322.912 159.146 325.571 163.157C328.229 167.168 332.009 170.294 336.431 172.141C340.854 173.988 345.721 174.472 350.417 173.533C355.113 172.593 359.427 170.272 362.813 166.862C366.199 163.453 368.505 159.109 369.44 154.379C370.374 149.649 369.896 144.747 368.064 140.291C366.232 135.835 363.13 132.027 359.149 129.347C355.169 126.668 350.489 125.238 345.701 125.238C339.285 125.243 333.133 127.812 328.595 132.381C324.057 136.95 321.504 143.146 321.496 149.609ZM74.7691 125.238C79.5539 125.24 84.2308 126.671 88.2084 129.35C92.1859 132.029 95.2855 135.836 97.1152 140.289C98.945 144.743 99.4228 149.643 98.4881 154.37C97.5534 159.097 95.2483 163.438 91.8642 166.846C88.4801 170.253 84.169 172.573 79.4759 173.513C74.7828 174.452 69.9185 173.969 65.4981 172.124C61.0776 170.279 57.2995 167.156 54.6413 163.148C51.9832 159.14 50.5644 154.429 50.5644 149.609C50.5722 143.148 53.1238 136.953 57.6595 132.385C62.1952 127.816 68.3448 125.246 74.7593 125.238H74.7691ZM0 54.9823H65.5826L52.3101 103.391L142.029 54H197.967L199.196 88.0668L230.402 102.566L238.5 102.566H252.5L260 102.566C394.149 89.7957 448 132.752 448 132.752C448 132.752 440.666 137.664 422.713 140.994C418.929 144.246 419.144 155.179 419.144 155.179H442.744V170.896H392.033V143.902C390.239 143.971 387.693 144.305 385.148 144.363C384.395 138.615 382.412 133.099 379.338 128.197C376.263 123.295 372.169 119.123 367.339 115.969C362.508 112.815 357.056 110.754 351.358 109.929C345.66 109.103 339.852 109.532 334.335 111.187C328.818 112.842 323.723 115.682 319.401 119.513C315.08 123.343 311.634 128.072 309.303 133.374C306.972 138.676 305.81 144.424 305.898 150.222C305.986 156.02 307.322 161.729 309.813 166.957H110.637C113.22 161.53 114.556 155.587 114.548 149.568C114.539 143.55 113.185 137.611 110.586 132.192C107.988 126.773 104.211 122.012 99.5369 118.264C94.8625 114.515 89.4102 111.875 83.5846 110.539C77.7589 109.203 71.7094 109.206 65.8848 110.546C60.0601 111.887 54.6099 114.531 49.9384 118.283C45.2668 122.035 41.4939 126.798 38.8994 132.22C36.305 137.641 34.9556 143.581 34.9514 149.599C34.9514 150.817 35.0099 152.016 35.1172 153.204H0.00975228L0 54.9823Z" fill="white"/>
<path d="M4.33301 177.75H42.3955V196.187L36.958 197.249V223.501L42.3955 224.563V243H4.33301V224.563L9.77051 223.501V197.249L4.33301 196.187V177.75ZM72.3765 211.182V223.501L77.814 224.521V243H50.6265V224.563L56.064 223.501V197.249L50.6265 196.187V177.75H83.2515L105.002 211.182V197.333L99.564 196.187V177.75H126.752V196.187L121.314 197.249V223.501L126.752 224.563V243H94.084L72.3765 211.182ZM231.785 243H204.768C203.918 241.386 203.04 239.672 202.134 237.86C201.228 236.047 200.35 234.164 199.5 232.21C198.651 230.256 197.858 228.231 197.121 226.135C196.385 224.04 195.762 221.887 195.252 219.678H193.765V243H161.14V224.563L166.578 223.501V197.249L161.14 196.187V177.75H198.141C203.04 177.75 207.274 177.977 210.842 178.43C214.411 178.883 217.441 179.534 219.933 180.384C222.425 181.205 224.436 182.225 225.966 183.442C227.523 184.632 228.727 185.991 229.576 187.521C230.454 189.021 231.035 190.678 231.318 192.491C231.63 194.275 231.785 196.172 231.785 198.183C231.785 200.222 231.587 202.077 231.191 203.748C230.822 205.391 230.157 206.906 229.194 208.293C228.231 209.681 226.914 210.956 225.243 212.117C223.572 213.25 221.448 214.326 218.871 215.345C219.409 216.478 220.216 217.809 221.293 219.338C222.369 220.839 223.53 222.383 224.776 223.969C226.022 225.526 227.268 227.056 228.514 228.557C229.789 230.029 230.879 231.29 231.785 232.337V243ZM193.765 207.146C195.408 207.146 196.895 207.076 198.226 206.934C199.585 206.792 200.732 206.467 201.667 205.957C202.63 205.447 203.366 204.697 203.876 203.706C204.385 202.714 204.64 201.383 204.64 199.712C204.64 198.07 204.385 196.767 203.876 195.804C203.366 194.813 202.63 194.048 201.667 193.51C200.732 192.972 199.585 192.618 198.226 192.448C196.895 192.278 195.408 192.193 193.765 192.193V207.146ZM271.494 226.688C273.42 226.688 275.233 226.532 276.932 226.22C278.631 225.88 280.189 225.456 281.605 224.946C283.049 224.436 284.352 223.855 285.513 223.204C286.674 222.553 287.694 221.901 288.572 221.25H295.666V243H238.869V224.563L244.307 223.501V197.333L238.869 196.271V177.75H295.666V199.5H288.826C287.92 198.877 286.872 198.24 285.683 197.588C284.493 196.937 283.162 196.356 281.69 195.847C280.245 195.309 278.674 194.884 276.974 194.572C275.275 194.232 273.448 194.062 271.494 194.062V205.66L284.239 202.898V217.937L271.494 215.175V226.688ZM321.91 211.182V223.501L327.348 224.521V243H300.16V224.563L305.598 223.501V197.249L300.16 196.187V177.75H332.785L354.535 211.182V197.333L349.098 196.187V177.75H376.285V196.187L370.848 197.249V223.501L376.285 224.563V243H343.618L321.91 211.182ZM441.525 177.75V199.5H434.388C433.907 198.877 433.355 198.24 432.732 197.588C432.108 196.937 431.415 196.356 430.65 195.847C429.885 195.309 429.05 194.884 428.144 194.572C427.237 194.232 426.26 194.062 425.212 194.062V223.501L430.65 224.563V243H392.587V224.563L398.025 223.501V194.062C396.977 194.062 396 194.232 395.094 194.572C394.188 194.884 393.352 195.309 392.587 195.847C391.823 196.356 391.129 196.937 390.506 197.588C389.883 198.24 389.331 198.877 388.849 199.5H381.712V177.75H441.525Z" fill="white"/>
<path d="M237.578 65.2969C237.578 67.5365 237.865 69.4635 238.438 71.0781C239.01 72.6927 239.844 74.0208 240.938 75.0625C242.057 76.1042 243.411 76.8724 245 77.3672C246.615 77.862 248.451 78.1094 250.508 78.1094C252.956 78.1094 255.846 77.8099 259.18 77.2109C262.513 76.612 266.198 75.6875 270.234 74.4375V92.7188C266.042 94.125 261.953 95.1406 257.969 95.7656C254.01 96.3906 250.104 96.7031 246.25 96.7031C241.536 96.7031 237.122 96.1172 233.008 94.9453C228.919 93.7734 225.352 91.8854 222.305 89.2812C219.284 86.651 216.901 83.3438 215.156 79.3594C213.411 75.375 212.539 70.6875 212.539 65.2969C212.539 60.0365 213.333 55.5052 214.922 51.7031C216.536 47.901 218.802 44.776 221.719 42.3281C224.661 39.8542 228.177 38.0312 232.266 36.8594C236.38 35.6875 240.938 35.1016 245.938 35.1016C249.01 35.1016 251.771 35.2578 254.219 35.5703C256.693 35.8828 258.919 36.2734 260.898 36.7422C262.878 37.2109 264.622 37.7448 266.133 38.3438C267.669 38.9167 269.036 39.4766 270.234 40.0234V57.9922H258.477C257.148 56.1172 255.664 54.737 254.023 53.8516C252.409 52.9661 250.742 52.5234 249.023 52.5234C247.565 52.5234 246.146 52.8099 244.766 53.3828C243.411 53.9557 242.201 54.7891 241.133 55.8828C240.065 56.9766 239.206 58.3177 238.555 59.9062C237.904 61.4688 237.578 63.2656 237.578 65.2969ZM316.094 96L314.141 86.7422H298.789L296.836 96H275.938V77.875L280.469 76.9766L291.289 41H321.602L332.5 76.9766L336.992 77.875V96H316.094ZM301.172 74.3984H311.758L306.445 52.7969L301.172 74.3984ZM403.906 96H380.547C379.818 94.6458 379.062 93.2135 378.281 91.7031C377.5 90.1667 376.745 88.5651 376.016 86.8984C375.286 85.2318 374.596 83.513 373.945 81.7422C373.32 79.9714 372.786 78.1484 372.344 76.2734H371.055V96H342.852V80.4141L347.539 79.5156V57.2891L342.852 56.3906V41H374.844C379.089 41 382.747 41.1823 385.82 41.5469C388.919 41.9115 391.536 42.4453 393.672 43.1484C395.833 43.8516 397.578 44.7109 398.906 45.7266C400.234 46.7161 401.263 47.849 401.992 49.125C402.747 50.375 403.255 51.7552 403.516 53.2656C403.776 54.776 403.906 56.3776 403.906 58.0703C403.906 59.7891 403.737 61.3516 403.398 62.7578C403.086 64.1641 402.513 65.4531 401.68 66.625C400.846 67.7969 399.701 68.8776 398.242 69.8672C396.81 70.8307 394.974 71.7422 392.734 72.6016C393.203 73.5391 393.893 74.6589 394.805 75.9609C395.742 77.237 396.758 78.5521 397.852 79.9062C398.945 81.2344 400.026 82.5234 401.094 83.7734C402.188 85.0234 403.125 86.0911 403.906 86.9766V96ZM371.055 65.6875C372.487 65.6875 373.776 65.6224 374.922 65.4922C376.094 65.3359 377.083 65.0234 377.891 64.5547C378.724 64.0599 379.362 63.3438 379.805 62.4062C380.247 61.4688 380.469 60.2057 380.469 58.6172C380.469 57.0547 380.247 55.8047 379.805 54.8672C379.362 53.9297 378.724 53.2135 377.891 52.7188C377.083 52.1979 376.094 51.8594 374.922 51.7031C373.776 51.5469 372.487 51.4688 371.055 51.4688V65.6875Z" fill="white"/>
</svg>
