<svg width="473" height="241" viewBox="0 0 473 241" fill="none" xmlns="http://www.w3.org/2000/svg">
<g clip-path="url(#clip0_5_11)">
<path d="M333.496 126.609C333.494 131.432 334.912 136.146 337.571 140.157C340.229 144.168 344.009 147.294 348.431 149.141C352.854 150.988 357.721 151.472 362.417 150.533C367.113 149.593 371.427 147.272 374.813 143.862C378.199 140.453 380.505 136.109 381.44 131.379C382.374 126.649 381.896 121.747 380.064 117.291C378.232 112.835 375.13 109.027 371.149 106.347C367.169 103.668 362.489 102.238 357.701 102.238C351.285 102.243 345.133 104.812 340.595 109.381C336.057 113.95 333.504 120.146 333.496 126.609ZM86.7691 102.238C91.5539 102.24 96.2308 103.671 100.208 106.35C104.186 109.029 107.285 112.836 109.115 117.289C110.945 121.743 111.423 126.643 110.488 131.37C109.553 136.097 107.248 140.438 103.864 143.846C100.48 147.253 96.169 149.573 91.4759 150.513C86.7828 151.452 81.9185 150.969 77.4981 149.124C73.0776 147.279 69.2995 144.156 66.6413 140.148C63.9832 136.14 62.5644 131.429 62.5644 126.609C62.5722 120.148 65.1238 113.953 69.6595 109.385C74.1952 104.816 80.3448 102.246 86.7593 102.238H86.7691ZM12 31.9823H77.5826L64.3101 80.391L154.029 31H209.967L211.196 65.0668L242.402 79.5658L250.5 79.5658H264.5L272 79.5658C406.149 66.7957 460 109.752 460 109.752C460 109.752 452.666 114.664 434.713 117.994C430.929 121.246 431.144 132.179 431.144 132.179H454.744V147.896H404.033V120.902C402.239 120.971 399.693 121.305 397.148 121.363C396.395 115.615 394.412 110.099 391.338 105.197C388.263 100.295 384.169 96.1229 379.339 92.9689C374.508 89.815 369.056 87.7541 363.358 86.9286C357.66 86.103 351.852 86.5323 346.335 88.187C340.818 89.8416 335.723 92.6822 331.401 96.5127C327.08 100.343 323.634 105.072 321.303 110.374C318.972 115.676 317.81 121.424 317.898 127.222C317.986 133.02 319.322 138.729 321.813 143.957H122.637C125.22 138.53 126.556 132.587 126.548 126.568C126.539 120.55 125.185 114.611 122.586 109.192C119.988 103.773 116.211 99.0122 111.537 95.2638C106.862 91.5155 101.41 88.8753 95.5846 87.5393C89.7589 86.2033 83.7094 86.2056 77.8848 87.5461C72.0601 88.8867 66.6099 91.531 61.9384 95.283C57.2668 99.0349 53.4939 103.798 50.8994 109.22C48.305 114.641 46.9556 120.581 46.9514 126.599C46.9514 127.817 47.0099 129.016 47.1172 130.204H12.0098L12 31.9823Z" fill="#2A2D78"/>
<path d="M16.333 154.75H54.3955V173.187L48.958 174.249V200.501L54.3955 201.563V220H16.333V201.563L21.7705 200.501V174.249L16.333 173.187V154.75ZM84.3765 188.182V200.501L89.814 201.521V220H62.6265V201.563L68.064 200.501V174.249L62.6265 173.187V154.75H95.2515L117.002 188.182V174.333L111.564 173.187V154.75H138.752V173.187L133.314 174.249V200.501L138.752 201.563V220H106.084L84.3765 188.182ZM243.785 220H216.768C215.918 218.386 215.04 216.672 214.134 214.86C213.228 213.047 212.35 211.164 211.5 209.21C210.651 207.256 209.858 205.231 209.121 203.135C208.385 201.04 207.762 198.887 207.252 196.678H205.765V220H173.14V201.563L178.578 200.501V174.249L173.14 173.187V154.75H210.141C215.04 154.75 219.274 154.977 222.842 155.43C226.411 155.883 229.441 156.534 231.933 157.384C234.425 158.205 236.436 159.225 237.966 160.442C239.523 161.632 240.727 162.991 241.576 164.521C242.454 166.021 243.035 167.678 243.318 169.491C243.63 171.275 243.785 173.172 243.785 175.183C243.785 177.222 243.587 179.077 243.191 180.748C242.822 182.391 242.157 183.906 241.194 185.293C240.231 186.681 238.914 187.956 237.243 189.117C235.572 190.25 233.448 191.326 230.871 192.345C231.409 193.478 232.216 194.809 233.293 196.338C234.369 197.839 235.53 199.383 236.776 200.969C238.022 202.526 239.268 204.056 240.514 205.557C241.789 207.029 242.879 208.29 243.785 209.337V220ZM205.765 184.146C207.408 184.146 208.895 184.076 210.226 183.934C211.585 183.792 212.732 183.467 213.667 182.957C214.63 182.447 215.366 181.697 215.876 180.706C216.385 179.714 216.64 178.383 216.64 176.712C216.64 175.07 216.385 173.767 215.876 172.804C215.366 171.813 214.63 171.048 213.667 170.51C212.732 169.972 211.585 169.618 210.226 169.448C208.895 169.278 207.408 169.193 205.765 169.193V184.146ZM283.494 203.688C285.42 203.688 287.233 203.532 288.932 203.22C290.631 202.88 292.189 202.456 293.605 201.946C295.049 201.436 296.352 200.855 297.513 200.204C298.674 199.553 299.694 198.901 300.572 198.25H307.666V220H250.869V201.563L256.307 200.501V174.333L250.869 173.271V154.75H307.666V176.5H300.826C299.92 175.877 298.872 175.24 297.683 174.588C296.493 173.937 295.162 173.356 293.69 172.847C292.245 172.309 290.674 171.884 288.974 171.572C287.275 171.232 285.448 171.062 283.494 171.062V182.66L296.239 179.898V194.937L283.494 192.175V203.688ZM333.91 188.182V200.501L339.348 201.521V220H312.16V201.563L317.598 200.501V174.249L312.16 173.187V154.75H344.785L366.535 188.182V174.333L361.098 173.187V154.75H388.285V173.187L382.848 174.249V200.501L388.285 201.563V220H355.618L333.91 188.182ZM453.525 154.75V176.5H446.388C445.907 175.877 445.355 175.24 444.732 174.588C444.108 173.937 443.415 173.356 442.65 172.847C441.885 172.309 441.05 171.884 440.144 171.572C439.237 171.232 438.26 171.062 437.212 171.062V200.501L442.65 201.563V220H404.587V201.563L410.025 200.501V171.062C408.977 171.062 408 171.232 407.094 171.572C406.188 171.884 405.352 172.309 404.587 172.847C403.823 173.356 403.129 173.937 402.506 174.588C401.883 175.24 401.331 175.877 400.849 176.5H393.712V154.75H453.525Z" fill="#2A2D78"/>
<path d="M249.578 42.2969C249.578 44.5365 249.865 46.4635 250.438 48.0781C251.01 49.6927 251.844 51.0208 252.938 52.0625C254.057 53.1042 255.411 53.8724 257 54.3672C258.615 54.862 260.451 55.1094 262.508 55.1094C264.956 55.1094 267.846 54.8099 271.18 54.2109C274.513 53.612 278.198 52.6875 282.234 51.4375V69.7188C278.042 71.125 273.953 72.1406 269.969 72.7656C266.01 73.3906 262.104 73.7031 258.25 73.7031C253.536 73.7031 249.122 73.1172 245.008 71.9453C240.919 70.7734 237.352 68.8854 234.305 66.2812C231.284 63.651 228.901 60.3438 227.156 56.3594C225.411 52.375 224.539 47.6875 224.539 42.2969C224.539 37.0365 225.333 32.5052 226.922 28.7031C228.536 24.901 230.802 21.776 233.719 19.3281C236.661 16.8542 240.177 15.0312 244.266 13.8594C248.38 12.6875 252.938 12.1016 257.938 12.1016C261.01 12.1016 263.771 12.2578 266.219 12.5703C268.693 12.8828 270.919 13.2734 272.898 13.7422C274.878 14.2109 276.622 14.7448 278.133 15.3438C279.669 15.9167 281.036 16.4766 282.234 17.0234V34.9922H270.477C269.148 33.1172 267.664 31.737 266.023 30.8516C264.409 29.9661 262.742 29.5234 261.023 29.5234C259.565 29.5234 258.146 29.8099 256.766 30.3828C255.411 30.9557 254.201 31.7891 253.133 32.8828C252.065 33.9766 251.206 35.3177 250.555 36.9062C249.904 38.4688 249.578 40.2656 249.578 42.2969ZM328.094 73L326.141 63.7422H310.789L308.836 73H287.938V54.875L292.469 53.9766L303.289 18H333.602L344.5 53.9766L348.992 54.875V73H328.094ZM313.172 51.3984H323.758L318.445 29.7969L313.172 51.3984ZM415.906 73H392.547C391.818 71.6458 391.062 70.2135 390.281 68.7031C389.5 67.1667 388.745 65.5651 388.016 63.8984C387.286 62.2318 386.596 60.513 385.945 58.7422C385.32 56.9714 384.786 55.1484 384.344 53.2734H383.055V73H354.852V57.4141L359.539 56.5156V34.2891L354.852 33.3906V18H386.844C391.089 18 394.747 18.1823 397.82 18.5469C400.919 18.9115 403.536 19.4453 405.672 20.1484C407.833 20.8516 409.578 21.7109 410.906 22.7266C412.234 23.7161 413.263 24.849 413.992 26.125C414.747 27.375 415.255 28.7552 415.516 30.2656C415.776 31.776 415.906 33.3776 415.906 35.0703C415.906 36.7891 415.737 38.3516 415.398 39.7578C415.086 41.1641 414.513 42.4531 413.68 43.625C412.846 44.7969 411.701 45.8776 410.242 46.8672C408.81 47.8307 406.974 48.7422 404.734 49.6016C405.203 50.5391 405.893 51.6589 406.805 52.9609C407.742 54.237 408.758 55.5521 409.852 56.9062C410.945 58.2344 412.026 59.5234 413.094 60.7734C414.188 62.0234 415.125 63.0911 415.906 63.9766V73ZM383.055 42.6875C384.487 42.6875 385.776 42.6224 386.922 42.4922C388.094 42.3359 389.083 42.0234 389.891 41.5547C390.724 41.0599 391.362 40.3438 391.805 39.4062C392.247 38.4688 392.469 37.2057 392.469 35.6172C392.469 34.0547 392.247 32.8047 391.805 31.8672C391.362 30.9297 390.724 30.2135 389.891 29.7188C389.083 29.1979 388.094 28.8594 386.922 28.7031C385.776 28.5469 384.487 28.4688 383.055 28.4688V42.6875Z" fill="#2A2D78"/>
</g>
<defs>
<clipPath id="clip0_5_11">
<rect width="473" height="241" fill="white"/>
</clipPath>
</defs>
</svg>
